<svg width="139" height="37" viewBox="0 0 139 37" fill="none" xmlns="http://www.w3.org/2000/svg">
<g clip-path="url(#clip0_1_6806)">
<path d="M29.7159 36.9833H7.17969C3.21447 36.9833 0 33.7612 0 29.7865V7.19674C0 3.2221 3.21447 0 7.17969 0H29.7159C33.6812 0 36.8956 3.2221 36.8956 7.19674V29.7865C36.8956 33.7612 33.6812 36.9833 29.7159 36.9833Z" fill="#FEDA03"/>
<path d="M64.1762 12.6V30.7754H58.6195V28.2999C58.0559 29.1036 57.2922 29.7495 56.3286 30.2381C55.3644 30.7267 54.2976 30.9709 53.1278 30.9709C51.7412 30.9709 50.517 30.6615 49.4559 30.0426C48.3941 29.4238 47.5711 28.528 46.9862 27.3554C46.4013 26.1828 46.1089 24.8041 46.1089 23.2187V12.6H51.6329V22.4695C51.6329 23.6859 51.9467 24.6305 52.5753 25.3033C53.2034 25.9767 54.0483 26.3131 55.1099 26.3131C56.1929 26.3131 57.0484 25.9767 57.6771 25.3033C58.3051 24.6305 58.6194 23.6859 58.6194 22.4695V12.6H64.1762Z" fill="#0F0F0F"/>
<path d="M68.5792 9.84758C67.9618 9.27249 67.6531 8.561 67.6531 7.71409C67.6531 6.84585 67.9618 6.1236 68.5792 5.54807C69.1967 4.97297 69.9928 4.68494 70.9677 4.68494C71.9207 4.68494 72.7062 4.97297 73.3236 5.54807C73.941 6.1236 74.2497 6.84585 74.2497 7.71409C74.2497 8.561 73.941 9.27249 73.3236 9.84758C72.7061 10.4231 71.9207 10.7107 70.9677 10.7107C69.9928 10.7107 69.1967 10.4231 68.5792 9.84758ZM73.7297 12.6V30.7754H68.1731V12.6H73.7297Z" fill="#0F0F0F"/>
<path d="M93.9092 14.4729C95.1653 15.8522 95.7939 17.7464 95.7939 20.1569V30.7755H90.2697V20.906C90.2697 19.6902 89.9554 18.7455 89.3273 18.0722C88.6988 17.3993 87.8539 17.0624 86.7927 17.0624C85.731 17.0624 84.8862 17.3993 84.2581 18.0722C83.6294 18.7454 83.3157 19.6901 83.3157 20.906V30.7755H77.759V6.67175H83.3157V15.0429C83.8788 14.2398 84.6481 13.599 85.6229 13.1212C86.5978 12.6438 87.6914 12.4046 88.9049 12.4046C90.9846 12.4046 92.6525 13.0942 93.9092 14.4729Z" fill="#0F0F0F"/>
<path d="M99.6121 16.7367C100.316 15.3254 101.274 14.2399 102.488 13.4795C103.701 12.7196 105.055 12.3395 106.55 12.3395C107.828 12.3395 108.949 12.6001 109.913 13.1212C110.877 13.6424 111.619 14.3264 112.139 15.1733V12.6001H117.696V30.7755H112.139V28.2022C111.597 29.0491 110.844 29.7332 109.881 30.2543C108.916 30.7755 107.795 31.0361 106.517 31.0361C105.044 31.0361 103.701 30.6508 102.488 29.8797C101.274 29.1091 100.316 28.0123 99.612 26.5898C98.9078 25.1678 98.5559 23.523 98.5559 21.6551C98.556 19.7879 98.9079 18.1485 99.6121 16.7367ZM110.986 18.3979C110.216 17.5948 109.28 17.1928 108.175 17.1928C107.07 17.1928 106.133 17.5892 105.364 18.3816C104.595 19.1745 104.21 20.2657 104.21 21.6551C104.21 23.0451 104.595 24.1469 105.364 24.9613C106.133 25.7756 107.07 26.1828 108.175 26.1828C109.28 26.1828 110.216 25.7812 110.986 24.9776C111.754 24.1744 112.139 23.0777 112.139 21.6877C112.139 20.2983 111.754 19.2015 110.986 18.3979Z" fill="#0F0F0F"/>
<path d="M132.448 30.7754L128.971 25.7267L126.046 30.7754H120.035L126.014 21.4922L119.872 12.6H126.111L129.588 17.6162L132.513 12.6H138.525L132.448 21.7528L138.687 30.7754H132.448Z" fill="#0F0F0F"/>
<path d="M10.3215 7.09875H11.3647C12.1695 7.09875 12.7553 7.32836 13.1217 7.78677C13.4872 8.24598 13.6888 8.82394 13.7257 9.52046V24.1004C13.7257 24.7978 13.881 25.2561 14.1924 25.4763C14.5029 25.6964 14.9697 25.8065 15.5925 25.8065H21.1382C21.7602 25.8435 22.2089 25.7333 22.4834 25.4763C22.758 25.22 22.8952 24.7608 22.8952 24.1004V17.0858C22.8952 16.3523 23.1054 15.7649 23.5266 15.3247C23.947 14.8844 24.5424 14.6642 25.3111 14.6642H26.3543C27.0861 14.6642 27.6902 14.8663 28.1663 15.2696C28.6415 15.6738 28.8801 16.2792 28.8801 17.0858V23.3849C28.8801 24.0823 28.669 24.6602 28.2486 25.1186C27.8273 25.5778 27.2328 25.8066 26.4641 25.8066H24.7071C24.0482 25.8066 23.5814 25.9357 23.307 26.1919C23.0324 26.449 22.8951 26.8893 22.8951 27.5128V29.5492C22.8951 30.3937 22.6935 30.9802 22.2911 31.3104C21.8879 31.6406 21.3028 31.8057 20.5341 31.8057H16.1415C15.3728 31.8057 14.7774 31.6311 14.357 31.2829C13.9357 30.9346 13.7255 30.3567 13.7255 29.5492V27.5127C13.7255 26.8892 13.5968 26.449 13.3411 26.1918C13.0846 25.9356 12.6633 25.8065 12.0783 25.8065H10.3212C9.51566 25.8065 8.92969 25.614 8.56419 25.2287C8.19789 24.8434 8.01514 24.2474 8.01514 23.44V9.52037C8.01514 8.85996 8.19789 8.29151 8.56419 7.81419C8.92987 7.33786 9.51584 7.09875 10.3215 7.09875Z" fill="#0F0F0F"/>
<path d="M26.4891 13.4785C27.2579 13.4785 27.8258 13.2497 28.1913 12.7905C28.5576 12.3322 28.7403 11.7172 28.7403 10.9467V9.79098C28.7403 8.91038 28.5576 8.24988 28.1913 7.80967C27.8258 7.36937 27.2398 7.14917 26.4342 7.14917H25.2263C24.4575 7.14917 23.881 7.37878 23.4967 7.83718C23.1123 8.29639 22.9202 8.94739 22.9202 9.79107V11.0569C22.9202 11.9375 23.1313 12.5619 23.5517 12.9281C23.9729 13.2953 24.6043 13.4786 25.4459 13.4786H26.4891V13.4785Z" fill="#0F0F0F"/>
</g>
<defs>
<clipPath id="clip0_1_6806">
<rect width="138.687" height="36.9833" fill="white"/>
</clipPath>
</defs>
</svg>
