<svg width="21" height="21" viewBox="0 0 21 21" fill="none" xmlns="http://www.w3.org/2000/svg">
<path d="M18.083 17.9917L13.083 12.9917M14.7497 8.82503C14.7497 9.59108 14.5988 10.3496 14.3056 11.0574C14.0125 11.7651 13.5828 12.4081 13.0411 12.9498C12.4995 13.4915 11.8564 13.9212 11.1487 14.2143C10.4409 14.5075 9.68239 14.6584 8.91634 14.6584C8.1503 14.6584 7.39175 14.5075 6.68402 14.2143C5.97629 13.9212 5.33323 13.4915 4.79155 12.9498C4.24988 12.4081 3.8202 11.7651 3.52704 11.0574C3.23389 10.3496 3.08301 9.59108 3.08301 8.82503C3.08301 7.27794 3.69759 5.79421 4.79155 4.70024C5.88551 3.60628 7.36924 2.9917 8.91634 2.9917C10.4634 2.9917 11.9472 3.60628 13.0411 4.70024C14.1351 5.79421 14.7497 7.27794 14.7497 8.82503Z" stroke="#6B7280" stroke-width="2" stroke-linecap="round" stroke-linejoin="round"/>
</svg>
